# xmcd
#
# Track frame offsets:
#	183
#	15985
#	31220
#	55208
#	71533
#	87675
#	107783
#	123295
#	138845
#	156360
#
# Disc length: 2304 seconds
#
# Revision: 0
# Processed by: cddbd v1.4PL0 Copyright (c) Steve Scherf et al.
# Submitted via: EasyCDDAExtractor 4.6.9.1
#
DISCID=7f08fe0a
DTITLE=黃寶欣 - 仍是衷心祝福你
DYEAR=1989
DGENRE=pop
TTITLE0=仍是衷心祝福你
TTITLE1=午夜探戈
TTITLE2=說謊的東西
TTITLE3=慶祝
TTITLE4=滿載愛心
TTITLE5=凌晨4點鐘
TTITLE6=寬恕
TTITLE7=末世風情
TTITLE8=不再難過
TTITLE9=熱吻過後
EXTD=
EXTT0=
EXTT1=
EXTT2=
EXTT3=
EXTT4=
EXTT5=
EXTT6=
EXTT7=
EXTT8=
EXTT9=
PLAYORDER=
